<?xml version="1.0" encoding="UTF-8" standalone="no"?>
<!-- Created with Inkscape (http://www.inkscape.org/) -->

<svg
   width="720"
   height="280"
   viewBox="0 0 190.49999 74.083333"
   version="1.1"
   id="svg5"
   inkscape:version="1.3.2 (091e20ef0f, 2023-11-25, custom)"
   sodipodi:docname="drawing.svg"
   xml:space="preserve"
   inkscape:export-filename="RANALOG.png"
   inkscape:export-xdpi="96"
   inkscape:export-ydpi="96"
   xmlns:inkscape="http://www.inkscape.org/namespaces/inkscape"
   xmlns:sodipodi="http://sodipodi.sourceforge.net/DTD/sodipodi-0.dtd"
   xmlns="http://www.w3.org/2000/svg"
   xmlns:svg="http://www.w3.org/2000/svg"><sodipodi:namedview
     id="namedview7"
     pagecolor="#505050"
     bordercolor="#000000"
     borderopacity="1"
     inkscape:pageshadow="0"
     inkscape:pageopacity="0"
     inkscape:pagecheckerboard="false"
     inkscape:document-units="px"
     showgrid="false"
     units="px"
     width="800px"
     inkscape:showpageshadow="0"
     inkscape:deskcolor="#505050"
     inkscape:zoom="1.3098291"
     inkscape:cx="339.73899"
     inkscape:cy="100.77651"
     inkscape:window-width="1920"
     inkscape:window-height="1080"
     inkscape:window-x="0"
     inkscape:window-y="1080"
     inkscape:window-maximized="1"
     inkscape:current-layer="layer3" /><defs
     id="defs2" /><g
     inkscape:groupmode="layer"
     id="layer4"
     inkscape:label="BG"
     sodipodi:insensitive="true"><rect
       style="display:inline;fill:#000000;fill-opacity:1;stroke:none;stroke-width:2.23842;stroke-linecap:round;stroke-linejoin:round;stroke-dasharray:none;stroke-opacity:1"
       id="rect35"
       width="190.5"
       height="74.083336"
       x="-2.7142858e-06"
       y="-2.3271214e-06"
       ry="0"
       rx="0" /></g><g
     inkscape:label="Base"
     inkscape:groupmode="layer"
     id="layer1"
     style="display:inline"><rect
       style="fill:none;stroke:#b1b1b1;stroke-width:1.57663;stroke-linecap:round;stroke-linejoin:round;stroke-dasharray:none;stroke-opacity:1"
       id="rect1"
       width="12.275578"
       height="7.7450438"
       x="51.727039"
       y="12.191618"
       ry="1.6696873" /><path
       id="rect2"
       style="fill:none;stroke:#b1b1b1;stroke-width:1.57663;stroke-linecap:round;stroke-linejoin:round;stroke-dasharray:none;stroke-opacity:1"
       d="m 69.938648,12.340546 9.670606,2.606444 c 0.31796,0.0857 0.970567,0.21482 0.970567,1.117134 0,0.90231 -0.648283,1.03026 -0.970567,1.11713 l -9.670606,2.60645 c -0.843489,0.22735 -1.574851,-0.71604 -1.574851,-1.60546 V 13.94601 c 0,-0.889432 0.731362,-1.832809 1.574851,-1.605464 z"
       sodipodi:nodetypes="sscsssss" /><path
       id="rect3"
       style="fill:none;stroke:#ffffff;stroke-width:2.19441;stroke-linecap:round;stroke-linejoin:round;stroke-dasharray:none;stroke-opacity:1"
       d="m 62.455611,28.687874 c -0.841978,0.01 -1.519819,0.7209 -1.519819,1.56354 v 4.56799 c 0,1.34517 0.04212,1.74578 0.697762,2.47127 0.286106,0.3166 1.174066,1.27301 1.774393,1.83527 0.775412,0.72624 1.755747,1.40925 2.791885,1.40925 1.036138,0 2.016473,-0.68301 2.791886,-1.40925 0.600328,-0.56226 1.488304,-1.51867 1.774409,-1.83527 0.655631,-0.72549 0.697747,-1.1261 0.697747,-2.47127 v -4.56799 c 0,-0.84264 -0.677825,-1.55383 -1.519803,-1.56354 h -3.744239 z" /><path
       id="path5"
       style="fill:none;stroke:#ffffff;stroke-width:2.19441;stroke-linecap:round;stroke-linejoin:round;stroke-dasharray:none;stroke-opacity:1"
       d="m 62.455611,63.849104 c -0.841978,-0.0116 -1.519819,-0.72088 -1.519819,-1.56352 v -4.568 c 0,-1.34519 0.04212,-1.74579 0.697762,-2.47129 0.286106,-0.31659 1.174066,-1.27298 1.774393,-1.83525 0.775412,-0.72625 1.755747,-1.40924 2.791885,-1.40924 1.036138,0 2.016473,0.68299 2.791886,1.40924 0.600328,0.56227 1.488304,1.51866 1.774409,1.83525 0.655631,0.7255 0.697747,1.1261 0.697747,2.47129 v 4.568 c 0,0.84264 -0.677825,1.5538 -1.519803,1.56352 h -3.744239 z" /><path
       id="path12"
       style="fill:none;stroke:#ffffff;stroke-width:2.19441;stroke-linecap:round;stroke-linejoin:round;stroke-dasharray:none;stroke-opacity:1"
       d="m 83.780452,42.524274 c -0.01,-0.84199 -0.72088,-1.51983 -1.56353,-1.51983 H 77.64893 c -1.345196,0 -1.745788,0.0422 -2.471296,0.69777 -0.316585,0.2861 -1.272998,1.17406 -1.835258,1.77438 -0.726246,0.77542 -1.409231,1.75576 -1.409231,2.79189 0,1.03614 0.682985,2.01648 1.409231,2.79187 0.56226,0.60034 1.518673,1.4883 1.835258,1.77443 0.725508,0.65563 1.1261,0.69775 2.471296,0.69775 h 4.567992 c 0.84265,0 1.55381,-0.67783 1.56353,-1.51981 v -3.74424 z" /><path
       id="path13"
       style="fill:none;stroke:#ffffff;stroke-width:2.19441;stroke-linecap:round;stroke-linejoin:round;stroke-dasharray:none;stroke-opacity:1"
       d="m 48.619215,42.524274 c 0.0097,-0.84199 0.720878,-1.51983 1.563526,-1.51983 h 4.567996 c 1.345195,0 1.745787,0.0422 2.471295,0.69777 0.316585,0.2861 1.272998,1.17406 1.835259,1.77438 0.726245,0.77542 1.40923,1.75576 1.40923,2.79189 0,1.03614 -0.682985,2.01648 -1.40923,2.79187 -0.562261,0.60034 -1.518674,1.4883 -1.835259,1.77443 -0.725508,0.65563 -1.1261,0.69775 -2.471295,0.69775 h -4.567996 c -0.842648,0 -1.553802,-0.67783 -1.563526,-1.51981 v -3.74424 z" /><path
       id="rect14"
       style="fill:none;stroke:#b1b1b1;stroke-width:2.19441;stroke-linecap:round;stroke-linejoin:round;stroke-opacity:1"
       d="m 107.14233,23.711614 c -9.556188,0 -17.327368,1.61995 -17.327368,2.63825 v 5.60067 c 0,0.37367 0.53936,0.67442 2.55469,0.67442 2.43601,0 5.01175,-1.25685 14.772678,-1.25685 9.76092,0 12.33597,1.25685 14.77197,1.25685 2.01534,0 2.5547,-0.30075 2.5547,-0.67442 v -5.60067 c 0,-1.02056 -7.78436,-2.63825 -17.32667,-2.63825 z"
       sodipodi:nodetypes="sssszssss" /><path
       id="path15"
       style="fill:none;stroke:#b1b1b1;stroke-width:2.19441;stroke-linecap:round;stroke-linejoin:round;stroke-opacity:1"
       d="m 107.14233,5.9848245 c -9.556188,0 -17.327368,1.647535 -17.327368,2.683176 V 19.753114 c 0,0.38005 0.53936,0.68592 2.55469,0.68592 2.43601,0 5.01175,-1.27825 14.772678,-1.27825 9.76092,0 12.33597,1.27825 14.77197,1.27825 2.01534,0 2.5547,-0.30587 2.5547,-0.68592 V 8.6680005 c 0,-1.037933 -7.78436,-2.683176 -17.32667,-2.683176 z"
       sodipodi:nodetypes="sssszssss" /><circle
       style="fill:none;stroke:#ffffff;stroke-width:2.30991;stroke-linecap:round;stroke-linejoin:round;stroke-dasharray:none;stroke-opacity:1"
       id="circle16"
       cx="25.267473"
       cy="52.086674"
       r="16.226351" /><path
       id="path38"
       style="fill:none;stroke:#b1b1b1;stroke-width:2.19441;stroke-linecap:round;stroke-linejoin:round;stroke-opacity:1"
       d="m 24.774413,23.439334 c -9.556183,0 -17.3273623,1.61994 -17.3273623,2.63826 v 5.60065 c 0,0.37369 0.539363,0.67444 2.5546953,0.67444 2.436004,0 5.011745,-1.25685 14.772667,-1.25685 9.760918,0 12.335968,1.25685 14.771973,1.25685 2.015332,0 2.554695,-0.30075 2.554695,-0.67444 v -5.60065 c 0,-1.02056 -7.784359,-2.63826 -17.326668,-2.63826 z"
       sodipodi:nodetypes="sssszssss" /><path
       id="path39"
       style="fill:none;stroke:#b1b1b1;stroke-width:2.19441;stroke-linecap:round;stroke-linejoin:round;stroke-opacity:1"
       d="m 24.774413,5.7125485 c -9.556183,0 -17.3273623,1.647535 -17.3273623,2.683176 V 19.480844 c 0,0.38004 0.539363,0.68591 2.5546953,0.68591 2.436004,0 5.011745,-1.27825 14.772667,-1.27825 9.760918,0 12.335968,1.27825 14.771973,1.27825 2.015332,0 2.554695,-0.30587 2.554695,-0.68591 V 8.3957245 c 0,-1.037933 -7.784359,-2.683176 -17.326668,-2.683176 z"
       sodipodi:nodetypes="sssszssss" /><circle
       style="fill:none;stroke:#ffffff;stroke-width:2.30991;stroke-linecap:round;stroke-linejoin:round;stroke-dasharray:none;stroke-opacity:1"
       id="circle41"
       cx="106.94659"
       cy="52.086674"
       r="16.226351" /></g><g
     inkscape:groupmode="layer"
     id="layer2"
     inkscape:label="Pressed"
     style="display:inline"><rect
       style="fill:#b1b1b1;fill-opacity:1;stroke:#b1b1b1;stroke-width:1.60816;stroke-linecap:round;stroke-linejoin:round;stroke-dasharray:none;stroke-opacity:1"
       id="rect45"
       width="12.52109"
       height="7.8999448"
       x="51.604282"
       y="12.114167"
       ry="1.703081" /><path
       id="path45"
       style="fill:#b1b1b1;fill-opacity:1;stroke:#b1b1b1;stroke-width:1.60816;stroke-linecap:round;stroke-linejoin:round;stroke-dasharray:none;stroke-opacity:1"
       d="m 69.847985,12.266074 9.864018,2.658573 c 0.324319,0.08741 0.989978,0.219117 0.989978,1.139477 0,0.920356 -0.661248,1.050865 -0.989978,1.139473 l -9.864018,2.658579 c -0.860359,0.231897 -1.606348,-0.730361 -1.606348,-1.63757 v -4.320958 c 0,-0.907221 0.745989,-1.869465 1.606348,-1.637574 z"
       sodipodi:nodetypes="sscsssss" /><path
       id="path48"
       style="fill:#ffffff;fill-opacity:0.995413;stroke:#ffffff;stroke-width:2.19441;stroke-linecap:round;stroke-linejoin:round;stroke-dasharray:none;stroke-opacity:1"
       d="m 62.455611,28.687874 c -0.841978,0.01 -1.519819,0.7209 -1.519819,1.56354 v 4.56799 c 0,1.34517 0.04212,1.74578 0.697762,2.47127 0.286106,0.3166 1.174066,1.27301 1.774393,1.83527 0.775412,0.72624 1.755747,1.40925 2.791885,1.40925 1.036138,0 2.016473,-0.68301 2.791886,-1.40925 0.600328,-0.56226 1.488304,-1.51867 1.774409,-1.83527 0.655631,-0.72549 0.697747,-1.1261 0.697747,-2.47127 v -4.56799 c 0,-0.84264 -0.677825,-1.55383 -1.519803,-1.56354 h -3.744239 z" /><path
       id="path49"
       style="fill:#ffffff;fill-opacity:0.995413;stroke:#ffffff;stroke-width:2.19441;stroke-linecap:round;stroke-linejoin:round;stroke-dasharray:none;stroke-opacity:1"
       d="m 62.455611,63.849104 c -0.841978,-0.0116 -1.519819,-0.72088 -1.519819,-1.56352 v -4.568 c 0,-1.34519 0.04212,-1.74579 0.697762,-2.47129 0.286106,-0.31659 1.174066,-1.27298 1.774393,-1.83525 0.775412,-0.72625 1.755747,-1.40924 2.791885,-1.40924 1.036138,0 2.016473,0.68299 2.791886,1.40924 0.600328,0.56227 1.488304,1.51866 1.774409,1.83525 0.655631,0.7255 0.697747,1.1261 0.697747,2.47129 v 4.568 c 0,0.84264 -0.677825,1.5538 -1.519803,1.56352 h -3.744239 z" /><path
       id="path50"
       style="fill:#ffffff;fill-opacity:0.995413;stroke:#ffffff;stroke-width:2.19441;stroke-linecap:round;stroke-linejoin:round;stroke-dasharray:none;stroke-opacity:1"
       d="m 83.780452,42.524274 c -0.01,-0.84199 -0.72088,-1.51983 -1.56353,-1.51983 H 77.64893 c -1.345196,0 -1.745788,0.0422 -2.471296,0.69777 -0.316585,0.2861 -1.272998,1.17406 -1.835258,1.77438 -0.726246,0.77542 -1.409231,1.75576 -1.409231,2.79189 0,1.03614 0.682985,2.01648 1.409231,2.79187 0.56226,0.60034 1.518673,1.4883 1.835258,1.77443 0.725508,0.65563 1.1261,0.69775 2.471296,0.69775 h 4.567992 c 0.84265,0 1.55381,-0.67783 1.56353,-1.51981 v -3.74424 z" /><path
       id="path51"
       style="fill:#ffffff;fill-opacity:0.995413;stroke:#ffffff;stroke-width:2.19441;stroke-linecap:round;stroke-linejoin:round;stroke-dasharray:none;stroke-opacity:1"
       d="m 48.619215,42.524274 c 0.0097,-0.84199 0.720878,-1.51983 1.563526,-1.51983 h 4.567996 c 1.345195,0 1.745787,0.0422 2.471295,0.69777 0.316585,0.2861 1.272998,1.17406 1.835259,1.77438 0.726245,0.77542 1.40923,1.75576 1.40923,2.79189 0,1.03614 -0.682985,2.01648 -1.40923,2.79187 -0.562261,0.60034 -1.518674,1.4883 -1.835259,1.77443 -0.725508,0.65563 -1.1261,0.69775 -2.471295,0.69775 h -4.567996 c -0.842648,0 -1.553802,-0.67783 -1.563526,-1.51981 v -3.74424 z" /><path
       id="path52"
       style="fill:#b1b1b1;fill-opacity:1;stroke:#b1b1b1;stroke-width:2.2383;stroke-linecap:round;stroke-linejoin:round;stroke-opacity:1"
       d="m 107.14234,23.622481 c -9.747315,0 -17.673918,1.652349 -17.673918,2.691015 v 5.712683 c 0,0.381143 0.550147,0.687908 2.605783,0.687908 2.484731,0 5.111985,-1.281987 15.068135,-1.281987 9.95614,0 12.58269,1.281987 15.06741,1.281987 2.05564,0 2.60579,-0.306765 2.60579,-0.687908 v -5.712683 c 0,-1.040972 -7.94005,-2.691015 -17.6732,-2.691015 z"
       sodipodi:nodetypes="sssszssss" /><path
       id="path53"
       style="fill:#b1b1b1;fill-opacity:1;stroke:#b1b1b1;stroke-width:2.2383;stroke-linecap:round;stroke-linejoin:round;stroke-opacity:1"
       d="m 107.14234,5.8402824 c -9.747315,0 -17.673918,1.6804857 -17.673918,2.7368395 V 19.883938 c 0,0.387651 0.550147,0.699638 2.605783,0.699638 2.484731,0 5.111985,-1.303815 15.068135,-1.303815 9.95614,0 12.58269,1.303815 15.06741,1.303815 2.05564,0 2.60579,-0.311987 2.60579,-0.699638 V 8.5771219 c 0,-1.0586916 -7.94005,-2.7368395 -17.6732,-2.7368395 z"
       sodipodi:nodetypes="sssszssss" /><circle
       style="fill:#000000;fill-opacity:0;stroke:#f26b74;stroke-width:2.64583;stroke-linecap:round;stroke-linejoin:round;stroke-dasharray:none;stroke-opacity:1"
       id="circle53"
       cx="25.267473"
       cy="52.086674"
       r="16.226351" /><path
       id="path54"
       style="fill:#b1b1b1;fill-opacity:1;stroke:#b1b1b1;stroke-width:2.2383;stroke-linecap:round;stroke-linejoin:round;stroke-opacity:1"
       d="m 24.77442,23.3502 c -9.747307,0 -17.6739096,1.652339 -17.6739096,2.691026 v 5.712663 c 0,0.381163 0.5501503,0.687928 2.6057892,0.687928 2.4847244,0 5.1119804,-1.281987 15.0681204,-1.281987 9.956136,0 12.582687,1.281987 15.067412,1.281987 2.055639,0 2.605789,-0.306765 2.605789,-0.687928 v -5.712663 c 0,-1.040972 -7.940046,-2.691026 -17.673201,-2.691026 z"
       sodipodi:nodetypes="sssszssss" /><path
       id="path55"
       style="fill:#b1b1b1;fill-opacity:1;stroke:#b1b1b1;stroke-width:2.2383;stroke-linecap:round;stroke-linejoin:round;stroke-opacity:1"
       d="m 24.77442,5.5680064 c -9.747307,0 -17.6739096,1.6804857 -17.6739096,2.7368396 v 11.306822 c 0,0.387641 0.5501503,0.699628 2.6057892,0.699628 2.4847244,0 5.1119804,-1.303815 15.0681204,-1.303815 9.956136,0 12.582687,1.303815 15.067412,1.303815 2.055639,0 2.605789,-0.311987 2.605789,-0.699628 V 8.304846 c 0,-1.0586917 -7.940046,-2.7368396 -17.673201,-2.7368396 z"
       sodipodi:nodetypes="sssszssss" /><circle
       style="fill:#000000;fill-opacity:0;stroke:#f26b74;stroke-width:2.64583;stroke-linecap:round;stroke-linejoin:round;stroke-dasharray:none;stroke-opacity:1"
       id="circle55"
       cx="106.94659"
       cy="52.086674"
       r="16.226351" /><g
       id="g66"><circle
         style="display:inline;fill:none;stroke:#dca3d8;stroke-width:2.55949;stroke-linecap:round;stroke-linejoin:round;stroke-dasharray:none;stroke-opacity:1"
         id="circle10"
         cx="37.975895"
         cy="-138.61395"
         r="8.9795694"
         transform="rotate(90)" /><g
         id="circle47"
         transform="rotate(90)"><path
           style="color:#000000;fill:#dca3d8;stroke-linecap:round;stroke-linejoin:round;-inkscape-stroke:none"
           d="m 47.135056,-138.61395 a 9.1591606,9.1591606 0 0 1 -9.159161,9.15916 9.1591606,9.1591606 0 0 1 -9.159161,-9.15916 9.1591606,9.1591606 0 0 1 9.159161,-9.15916 9.1591606,9.1591606 0 0 1 9.159161,9.15916 z"
           id="path57" /><path
           style="color:#000000;fill:#dca3d8;stroke-linecap:round;stroke-linejoin:round;-inkscape-stroke:none"
           d="m 37.976562,-149.07812 c -5.763916,-10e-6 -10.464843,4.70092 -10.464843,10.46484 0,5.76392 4.700927,10.46289 10.464843,10.46289 5.763917,0 10.462891,-4.69897 10.462891,-10.46289 0,-5.76392 -4.698974,-10.46485 -10.462891,-10.46484 z m 0,2.61132 c 4.353003,0 7.853516,3.50052 7.853516,7.85352 0,4.353 -3.500513,7.85351 -7.853516,7.85351 -4.353002,0 -7.853515,-3.50051 -7.853515,-7.85351 0,-4.353 3.500513,-7.85352 7.853515,-7.85352 z"
           id="path58" /></g><path
         style="color:#000000;fill:#020000;fill-opacity:1;stroke-linecap:round;stroke-linejoin:round;-inkscape-stroke:none"
         d="m 134.75195,31.853516 c -1.2401,0 -2.25976,1.019672 -2.25976,2.259765 v 7.72461 c 0,1.240093 1.01966,2.259765 2.25976,2.259765 h 7.72461 c 1.2401,0 2.25977,-1.019672 2.25977,-2.259765 v -7.72461 c 0,-1.240093 -1.01967,-2.259765 -2.25977,-2.259765 z m 0,1.378906 h 7.72461 c 0.50007,0 0.88086,0.380788 0.88086,0.880859 v 7.72461 c 0,0.500071 -0.38079,0.880859 -0.88086,0.880859 h -7.72461 c -0.50008,0 -0.88086,-0.380788 -0.88086,-0.880859 v -7.72461 c 0,-0.500071 0.38078,-0.880859 0.88086,-0.880859 z"
         id="rect55" /></g><g
       id="g65"><circle
         style="display:inline;fill:none;stroke:#66a8e3;stroke-width:2.55949;stroke-linecap:round;stroke-linejoin:round;stroke-dasharray:none;stroke-opacity:1"
         id="path9"
         cx="156.25243"
         cy="55.614292"
         r="8.9795694" /><circle
         style="fill:#66a8e3;fill-opacity:1;stroke:#66a8e3;stroke-width:2.61068;stroke-linecap:round;stroke-linejoin:round;stroke-dasharray:none;stroke-opacity:1"
         id="circle45"
         cx="156.25243"
         cy="55.614292"
         r="9.1591606" /><path
         id="path61"
         style="color:#000000;fill:#000000;stroke-linecap:round;stroke-linejoin:round;-inkscape-stroke:none"
         d="m 161.264,49.921191 a 0.68037498,0.68037498 0 0 0 -0.48162,0.199988 l -4.53047,4.531506 -4.53203,-4.531506 a 0.68037498,0.68037498 0 0 0 -0.96066,0 0.68037498,0.68037498 0 0 0 0,0.962732 l 4.53047,4.530989 -4.53047,4.531506 a 0.68037498,0.68037498 0 0 0 0,0.961182 0.68037498,0.68037498 0 0 0 0.96066,0 l 4.53203,-4.53099 4.53047,4.53099 a 0.68037498,0.68037498 0 0 0 0.96325,0 0.68037498,0.68037498 0 0 0 0,-0.961182 l -4.53203,-4.531506 4.53203,-4.530989 a 0.68037498,0.68037498 0 0 0 0,-0.962732 0.68037498,0.68037498 0 0 0 -0.48163,-0.199988 z" /></g><g
       id="g64"><circle
         style="display:inline;fill:none;stroke:#f26b74;stroke-width:2.55949;stroke-linecap:round;stroke-linejoin:round;stroke-dasharray:none;stroke-opacity:1"
         id="circle11"
         cx="37.975895"
         cy="-173.89084"
         r="8.9795694"
         transform="rotate(90)" /><circle
         style="fill:#f26b74;fill-opacity:1;stroke:#f26b74;stroke-width:2.61068;stroke-linecap:round;stroke-linejoin:round;stroke-dasharray:none;stroke-opacity:1"
         id="circle48"
         cx="37.975895"
         cy="-173.89084"
         r="9.1591606"
         transform="rotate(90)" /><circle
         style="fill:none;fill-opacity:1;stroke:#000000;stroke-width:1.37054;stroke-linecap:round;stroke-linejoin:round;stroke-dasharray:none;stroke-opacity:1"
         id="circle63"
         cx="37.975895"
         cy="-173.89084"
         r="6.5427165"
         transform="rotate(90)" /></g><g
       id="g63"><circle
         style="display:inline;fill:none;stroke:#3bd2db;stroke-width:2.55949;stroke-linecap:round;stroke-linejoin:round;stroke-dasharray:none;stroke-opacity:1"
         id="circle9"
         cx="156.25243"
         cy="20.337431"
         r="8.9795694" /><circle
         style="fill:#3bd2db;fill-opacity:1;stroke:#3bd2db;stroke-width:2.61068;stroke-linecap:round;stroke-linejoin:round;stroke-dasharray:none;stroke-opacity:1"
         id="circle46"
         cx="156.25243"
         cy="20.337431"
         r="9.1591606" /><path
         style="fill:none;fill-opacity:1;stroke:#000000;stroke-width:1.37054;stroke-linecap:round;stroke-linejoin:round;stroke-dasharray:none;stroke-opacity:1"
         d="m 149.90245,24.072712 h 12.69996 l -6.34997,-10.500644 z"
         id="path63"
         sodipodi:nodetypes="cccc" /></g></g><g
     inkscape:groupmode="layer"
     id="layer3"
     inkscape:label="Analog"
     style="display:inline"><circle
       style="fill:#000000;fill-opacity:1;stroke:#ffffff;stroke-width:2.30992;stroke-linecap:round;stroke-linejoin:round;stroke-dasharray:none;stroke-opacity:1"
       id="circle17"
       cx="25.267471"
       cy="52.08667"
       r="8.1478329" /><circle
       style="fill:#000000;fill-opacity:1;stroke:#ffffff;stroke-width:2.30992;stroke-linecap:round;stroke-linejoin:round;stroke-dasharray:none;stroke-opacity:1"
       id="circle42"
       cx="106.94658"
       cy="52.08667"
       r="8.1478329" /></g></svg>
